# xmcd
#
# Track frame offsets:
#	150
#	15132
#	31797
#	45750
#	59335
#	73932
#	91067
#	105875
#	118242
#	128760
#	141782
#	155302
#	177535
#	195125
#
# Disc length: 2800
#
# Revision: 1
# Processed by: cddbd v1.5.1PL0 Copyright (c) Steve Scherf et al.
# Submitted via: EasyCDDAExtractor 4.5.0.2
# Normalized: r0:TDELIM( - )
#
DISCID=a30aee0e
DTITLE=Various Artist - Truck-Hits CD 2
DYEAR=1900
DGENRE=Country
TTITLE0=Truck Stop - Easy rider
TTITLE1=Linda Bergen - In Virginia fällt der Regen
TTITLE2=Tom Astor - Wer hat ein Herz, das nie bricht
TTITLE3=Gunter Gabriel - Deutschland ißt
TTITLE4=Truck Stop - Ein Tag wie ein Freund
TTITLE5=André Kentucky - 18 Räder und ein dutzend Rosen
TTITLE6=Hains Kirstain - Ich möcht so gern´ nach Nashville Tennessee
TTITLE7=Johnny Hill - Ich bin für die Liebe
TTITLE8=Tom Astor - Highway Helden
TTITLE9=Truck Stop - Die Frau mit dem Gurt
TTITLE10=Larry Schuba and Western Union - Frei wie ein Adler
TTITLE11=Gunter Gabriel - Dosenbier und Countrymusik
TTITLE12=Tom Astor - Mein Freund Charly
TTITLE13=Johnny Hill - Dieser Weg führt uns nach Haus
EXTD=
EXTT0=
EXTT1=
EXTT2=
EXTT3=
EXTT4=
EXTT5=
EXTT6=
EXTT7=
EXTT8=
EXTT9=
EXTT10=
EXTT11=
EXTT12=
EXTT13=
PLAYORDER=
